<?xml version="1.0" encoding="utf-8"?>
<!-- Generator: Adobe Illustrator 26.5.0, SVG Export Plug-In . SVG Version: 6.00 Build 0)  -->
<svg version="1.1" id="Layer_1" xmlns="http://www.w3.org/2000/svg" xmlns:xlink="http://www.w3.org/1999/xlink" x="0px" y="0px"
	 viewBox="0 0 1920 1280" style="enable-background:new 0 0 1920 1280;" xml:space="preserve">
<style type="text/css">
	.st0{fill:#FFFFFF;}
	.st1{fill:#D7FF23;}
	.st2{fill:#469BFF;}
	.st3{fill:#8237FF;}
</style>
<polygon class="st3" points="693.06,510.53 726.08,510.53 775.31,392.94 742.3,392.94 "/>
<path class="st0" d="M1197.03,750.35c33.02,0,58.8-13.32,75.02-32.73l1.74,0.29v25.78h31.57V540.94h-31.57v66.91
	c0,72.99-18.83,110.93-76.75,110.93s-74.73-37.94-74.73-110.93v-66.91h-31.57v59.09C1090.73,721.38,1129.83,750.35,1197.03,750.35z"
	/>
<path class="st0" d="M959.81,534.28c-33.02,0-58.8,13.32-75.02,32.73l-1.74-0.29v-25.78h-31.57v202.75h31.57v-66.91
	c0-72.99,18.83-110.93,76.75-110.93c57.93,0,74.73,37.94,74.73,110.93v66.91h31.57V684.6
	C1066.11,563.24,1027.01,534.28,959.81,534.28z"/>
<path class="st0" d="M1449.01,534.28c-68.06,0-117.01,44.6-117.01,108.03s48.95,108.03,117.01,108.03
	c68.06,0,116.72-44.6,116.72-108.03S1517.08,534.28,1449.01,534.28z M1449.01,718.78c-50.98,0-84.28-30.12-84.28-76.46
	s33.31-76.46,84.28-76.46c50.98,0,83.99,30.12,83.99,76.46S1499.99,718.78,1449.01,718.78z"/>
<path class="st0" d="M822.53,637.39c0-58.51-44.89-103.11-112.96-103.11c-68.06,0-112.96,44.6-112.96,108.03
	s44.89,108.03,112.96,108.03c54.74,0,94.71-24.33,108.9-72.41h-32.73c-5.79,20.27-30.99,40.84-76.17,40.84
	c-45.18,0-75.89-22.01-79.65-65.46h192.32C822.53,649.55,822.53,645.21,822.53,637.39z M630.79,621.75
	c6.37-34.47,33.6-55.9,78.78-55.9c45.18,0,73.86,21.43,80.23,55.9H630.79z"/>
<path class="st0" d="M454.4,540.94h-94.13v202.75h94.13c93.55,0,122.81-45.47,122.81-101.37S547.95,540.94,454.4,540.94z
	 M448.6,712.12h-56.77V572.51h56.77c73.86,0,94.13,30.41,94.13,69.8S522.46,712.12,448.6,712.12z"/>
</svg>
